<svg xmlns="http://www.w3.org/2000/svg" width="241.828" height="56" viewBox="0 0 241.828 56"><defs><style>.a,.d{fill:#0fc357;}.a{font-size:40px;font-family:Poppins-Bold, Poppins;font-weight:700;}.b{fill:#1da8bb;}.c{fill:#f09116;}.e{fill:#12ceb7;}</style></defs><g transform="translate(-289.586 115)"><text class="a" transform="translate(356.414 -73)"><tspan x="0" y="0">Excentiv</tspan></text><g transform="translate(286.944 -117.656)"><path class="b" d="M23.523,17.814a18.933,18.933,0,0,1,2.2,14.508A14.89,14.89,0,1,0,11.63,9.224a18.935,18.935,0,0,1,11.893,8.593Z" transform="translate(9.856)"/><path class="c" d="M17.814,22.754a18.929,18.929,0,0,1,14.51-2.195,14.891,14.891,0,1,0-23.1,14.09,18.929,18.929,0,0,1,8.591-11.9Z" transform="translate(0 5.237)"/><path class="d" d="M30.054,42.692a14.814,14.814,0,0,0,4.579-4.39A18.943,18.943,0,0,1,20.545,15.2a14.885,14.885,0,1,0,9.508,27.486Z" transform="translate(5.218 13.784)"/><path class="e" d="M29.714,23.54a18.933,18.933,0,0,1-14.508,2.195A14.89,14.89,0,1,0,38.3,11.647,18.935,18.935,0,0,1,29.712,23.54Z" transform="translate(13.784 9.875)"/></g></g></svg>